<?xml version="1.0" encoding="utf-8"?>
<!-- Generator: Adobe Illustrator 23.0.3, SVG Export Plug-In . SVG Version: 6.00 Build 0)  -->
<svg version="1.1" id="Layer_1" xmlns="http://www.w3.org/2000/svg" xmlns:xlink="http://www.w3.org/1999/xlink" x="0px" y="0px"
	 viewBox="0 0 490 490" style="enable-background:new 0 0 490 490;" xml:space="preserve">
<style type="text/css">
	.st0{fill:#3E606D;}
	.st1{fill:#607D8B;}
</style>
<path class="st0" d="M433.5,106.2c0,12.8-4.9,24.9-14.1,33.9l-64.3,64.6l-98-98l64.5-64.3c18.1-18.1,49.6-18.3,67.8,0l30,30
	C428.6,81.3,433.5,93.4,433.5,106.2z"/>
<path class="st1" d="M355.1,204.6L125.9,433.9c-2.1,2.1-4.9,3.6-7.7,4.3l-98.6,23.2c-1.1,0.2-2.3,0.4-3.6,0.4
	c-4.3,0-8.3-1.7-11.3-4.7c-3.8-3.8-5.5-9.6-4.3-14.9l23.2-98.6c0.6-2.8,2.1-5.5,4.3-7.7l229.2-229.2L355.1,204.6z"/>
<path class="st1" d="M468.7,461.8h-277c-11.8,0-21.3-9.5-21.3-21.3c0-11.8,9.5-21.3,21.3-21.3h277c11.8,0,21.3,9.5,21.3,21.3
	C490,452.2,480.5,461.8,468.7,461.8z"/>
</svg>
