<?xml version="1.0" encoding="utf-8"?>
<!-- Generator: Adobe Illustrator 23.0.3, SVG Export Plug-In . SVG Version: 6.00 Build 0)  -->
<svg version="1.1" id="Capa_1" xmlns="http://www.w3.org/2000/svg" xmlns:xlink="http://www.w3.org/1999/xlink" x="0px" y="0px"
	 viewBox="0 0 548.2 548.2" style="enable-background:new 0 0 548.2 548.2;" xml:space="preserve">
<style type="text/css">
	.st0{fill:url(#SVGID_1_);}
</style>
<linearGradient id="SVGID_1_" gradientUnits="userSpaceOnUse" x1="0" y1="274.0825" x2="548.165" y2="274.0825">
	<stop  offset="0" style="stop-color:#1245C6"/>
	<stop  offset="1" style="stop-color:#9909B7"/>
</linearGradient>
<path class="st0" d="M526.8,131c-14.3-14.3-31.5-21.4-51.7-21.4h-64l-14.6-38.8c-3.6-9.3-10.2-17.4-19.8-24.1
	c-9.6-6.8-19.5-10.1-29.6-10.1H201c-10.1,0-19.9,3.4-29.6,10.1c-9.6,6.8-16.2,14.8-19.8,24.1L137,109.6h-64
	c-20.2,0-37.4,7.1-51.7,21.4C7.1,145.3,0,162.5,0,182.7v255.8c0,20.2,7.1,37.4,21.4,51.7c14.3,14.3,31.5,21.4,51.7,21.4h402
	c20.2,0,37.4-7.1,51.7-21.4c14.3-14.3,21.4-31.5,21.4-51.7V182.7C548.2,162.5,541,145.3,526.8,131z M364.4,401
	c-25,25-55.1,37.5-90.4,37.5S208.8,426,183.7,401c-25-25-37.5-55.2-37.5-90.4c0-35.2,12.5-65.3,37.5-90.4c25-25,55.1-37.5,90.4-37.5
	s65.3,12.5,90.4,37.5c25,25,37.5,55.1,37.5,90.4C402,345.8,389.5,376,364.4,401z M274.1,228.4c-22.7,0-42,8-58.1,24.1
	c-16.1,16.1-24.1,35.4-24.1,58.1c0,22.6,8,42,24.1,58.1c16.1,16.1,35.4,24.1,58.1,24.1c22.6,0,42-8,58.1-24.1
	c16.1-16.1,24.1-35.5,24.1-58.1c0-22.7-8-42-24.1-58.1C316.1,236.4,296.7,228.4,274.1,228.4z"/>
</svg>
