<?xml version="1.0" encoding="utf-8"?>
<!-- Generator: Adobe Illustrator 23.0.3, SVG Export Plug-In . SVG Version: 6.00 Build 0)  -->
<svg version="1.1" id="Capa_1" xmlns="http://www.w3.org/2000/svg" xmlns:xlink="http://www.w3.org/1999/xlink" x="0px" y="0px"
	 viewBox="0 0 432.5 432.5" style="enable-background:new 0 0 432.5 432.5;" xml:space="preserve">
<style type="text/css">
	.st0{fill:url(#SVGID_1_);}
</style>
<linearGradient id="SVGID_1_" gradientUnits="userSpaceOnUse" x1="0" y1="216.2725" x2="432.544" y2="216.2725">
	<stop  offset="0" style="stop-color:#1245C6"/>
	<stop  offset="1" style="stop-color:#9909B7"/>
</linearGradient>
<path class="st0" d="M0,313.8v118.8h118.8L356.3,195L237.5,76.2L0,313.8z M103.6,396L103.6,396l-30.6,0v-36.5H36.5v-30.6l26-26
	l67.1,67.1L103.6,396z M246.7,124.8c4.2,0,6.3,2.1,6.3,6.3c0,1.9-0.7,3.5-2,4.9L96.2,290.7c-1.3,1.3-3,2-4.9,2
	c-4.2,0-6.3-2.1-6.3-6.3c0-1.9,0.7-3.5,2-4.9l154.7-154.7C243.2,125.4,244.8,124.8,246.7,124.8z M422,77.7l-67.1-66.8
	C347.7,3.6,339,0,328.9,0c-10.3,0-18.8,3.6-25.7,10.8L255.8,58l118.8,118.8l47.4-47.4c7-7,10.6-15.6,10.6-25.7
	C432.5,93.7,429,85.1,422,77.7z"/>
</svg>
